         <svg version="1.1" id="test" xmlns="http://www.w3.org/2000/svg" xmlns:xlink="http://www.w3.org/1999/xlink" x="-30" y="-30" viewBox="-30 -30 300 280" enable-background="new 0 0 260 250" xml:space="preserve">
	         <svg x="95" y="183" viewBox="-20 -10 300 280">
	              <defs />
	              <g id="leftLeg">
	                <path stroke="none" fill="#000000" d="M0.8 9.65 Q2 7.05 4.2 4.85 6.45 1.65 10.35 0.55 13.2 -0.25 16.3 0.1 19.9 0.5 17.6 7.45 17.15 8.8 16.35 14.25 15.5 19.65 14.75 21.8 12.45 28.35 11.8 33.85 10.6 44.4 11.1 45.8 11.45 46.75 10.55 47.15 L8.25 47.55 Q6.65 47.75 4.45 47 3.4 46.65 4.25 37.95 4.6 34.3 4.5 27.9 L4.1 20.3 Q3.95 19.1 3.15 18.45 1.75 17.3 0.7 15.55 -0.75 13.15 0.8 9.65"/>
	              </g>
	          </svg>
	          <svg  x="70" y="199" viewBox="0 0 300 280">
	              <defs/>
	              <g id="rightLeg">
	                <path stroke="none" fill="#000000" d="M3.65 12.9 L0.15 2.55 Q-0.65 0.7 2.35 0.2 4.85 -0.25 9.15 0.25 12.9 0.9 14.7 3.5 L17.2 9.05 Q18.25 11.55 19.15 22.45 L20.1 37.05 Q20.35 40.75 19.05 41.2 L14.7 40.9 Q12.25 40.65 11.1 36.55 9.85 30.65 8.4 26.9 6.85 22.85 3.65 12.9"/>
	              </g>
	          </svg>
	         <g id="body">
	         	<svg x="74" y="7" >
	                  <defs/>
	                  <g id="finger" viewBox="-10 -10 300 280">
	                    <path stroke="none" fill="#000000" d="M1.4 1.65 L0.9 0.9 Q0.9 -0.7 2.25 0.6 3.6 1.95 3.6 2.7 L3.6 2.8 Q6.2 6.2 7.95 10.45 L8 10.5 Q8.05 12.65 7.15 14.1 L7.15 14.15 5.05 14.35 3.95 13.5 3.35 11.6 Q2.7 8.5 0.9 6.65 L0.65 5.9 0.25 4.45 0.45 3.55 0.9 3.9 1.3 4.25 1.2 4.4 Q4.55 9.75 5.7 12.9 L5.85 12.95 Q6.3 13.25 6.55 12.65 6.95 10.8 6.05 9.1 L3.25 4.25 2.65 3.55 Q2.4 1.65 1.4 1.65"/>
	                    <path stroke="none" fill="#E7B698" d="M1.4 1.65 Q2.4 1.65 2.65 3.55 L3.25 4.25 6.05 9.1 Q6.95 10.8 6.55 12.65 6.3 13.25 5.85 12.95 L5.7 12.9 Q4.55 9.75 1.2 4.4 L1.3 4.25 0.9 3.9 0.45 3.55 0.25 3.2 0 2.4 Q0 1.6 0.7 1.85 L1.4 1.65"/>
	                  </g>
	            </svg>
	            <path stroke="none" fill="#000000" d="M149.75 130.8 L149.8 130.85 Q150.9 131.95 150.9 133.85 151 135.3 151.45 138 L152.05 143.05 152.1 146.4 152 147.3 150.05 165.45 149.6 168.65 Q147.4 182.65 144.95 184.1 L145.35 184.5 145.35 185 144.95 184.15 Q144.15 185.15 143.8 186.75 L142.75 189.5 141.5 192.2 138.85 196.35 Q136 200.35 132.75 203.45 128.4 207.6 118.4 212.3 L118.35 212.3 118.1 212.4 Q112.55 214.55 104.65 214.55 101.2 214.55 93.25 213.15 L85.6 211.6 80 209 74.5 206.3 Q68.8 203.25 64.85 199.95 63.4 198.75 57.3 191.5 L51.3 184.2 Q45.2 177.35 40.8 168.55 L37.6 162.15 Q33.25 153.5 29.75 143.9 28.2 139.8 27.2 135.15 L26.5 131.2 25.9 127.2 Q24.3 119.75 24.45 119.2 L24.45 117.9 24.45 117.75 Q23.7 116.55 23.5 114.25 23.3 112.2 22.55 110.55 L21.05 106.6 20 103.25 Q19.7 101.25 17.8 97 L15 91.05 Q13.15 86.55 12.6 84.6 L11.45 81.85 Q11.75 81.5 11.15 80.25 L6.25 68.25 5.15 66 Q5.25 63.55 4.55 61.55 L3.45 58.45 Q2.1 54.7 0.25 51.4 -0.05 50.95 0.05 50.15 0.8 47.85 2.3 46.3 L11.35 37.2 Q14.25 35.45 16.55 33.1 17.35 32.25 18.5 31.7 20.95 28.8 24 26.4 L26.75 23.7 Q28 22.25 29.5 21.05 31.35 17.75 34.7 15.95 L35.25 15.85 37.1 17.75 37.1 17.85 37.65 17.95 37.65 17.85 Q40.05 15.95 42.75 14.5 L44.25 13.75 Q47.95 11.85 49.4 10.25 L52.85 6.55 Q54.9 4.5 55.75 3.05 56.55 1.55 57.65 0.2 L57.75 0.15 Q59.15 -0.35 60.9 0.65 L60.95 0.75 66.9 1.35 Q69.95 1.65 72.95 2.6 L74.7 3.2 75.5 3.8 77.45 4.85 77.5 4.95 77.55 5.1 Q77.9 5.5 77.8 6.65 L77.55 8.05 77.2 9.4 76.45 12.9 Q75.7 16.45 75.75 17.3 L75.7 17.3 75.7 17.4 75.35 18.3 75.25 18.35 73.75 19.35 73.65 19.55 72.85 20.7 Q71.65 23.05 68.9 22.95 68.45 22.7 68.5 21.8 L68.9 18.5 68.9 18.4 Q67.1 19.7 64.7 19.75 L64.65 19.75 64.25 17.75 64.4 17.7 66.9 14.7 66.85 14.55 Q65.4 12.15 62.25 11.35 L62.2 11.5 60.45 14.85 60.5 15 60.8 16.7 66.25 21.7 Q67.1 22.5 66.9 22.8 L66.9 22.75 Q66.75 23.35 67.35 24.7 L67.2 24.75 66.45 25.7 66.35 25.7 Q65.45 25.9 64.9 26.3 L64.7 26.3 Q58.5 25.4 52.95 23.4 L52.95 23.5 Q52 23.7 51.15 23.1 L51.15 23.05 45.85 25.15 45.85 25.25 Q46.4 27 46.25 28.8 L44.55 30.35 42.85 31.75 33.55 41.8 Q30.4 45.2 28.25 49.6 L27.7 50.7 Q26.55 53.25 24.65 54.9 L24.65 55.1 Q24.55 56.4 23.3 56.7 L23.3 56.8 23.6 58.1 Q25.75 61.5 27.5 65.3 L27.7 65.8 Q29.8 71.2 32.5 75.85 34.95 79.9 37.05 84.4 L37.9 86.7 Q38.7 89.25 40.15 91.15 L40.3 91.15 Q42.2 91.55 43.65 93.05 L43.75 93 Q47.35 91.05 51.15 89.4 L53.55 87.55 53.5 87.35 Q53.5 87.1 54.95 85 L57.05 81.65 58.9 77.5 58.85 77.25 57.95 68.8 57.1 65.85 56.05 62.9 Q55.2 60.9 53.65 56.1 L52.2 51.1 52.3 50.55 52.25 49.5 52.05 49 Q52.25 47.45 52.6 46.05 L53.05 44.45 Q54.05 41.55 55.35 39.05 59.8 30.6 67.9 25.7 L73.3 23.4 74 23.2 75.05 22.7 75.05 22.75 82.45 20.9 82.45 20.95 86.75 21.45 Q90.5 21.65 93.4 22.8 L95.65 23.7 99.45 25 Q102.45 27.6 104.65 31.1 L106.45 34.25 108.7 38.55 111.45 45.75 Q113.1 50.1 113.3 51.8 L113.75 54.9 114 56.85 114.45 58.35 114.4 58.4 Q114.7 59.7 114.65 61.25 114.6 62.85 114.15 64.7 L114.15 64.85 Q113.5 65.6 113.35 66.9 L113.4 66.9 Q114.35 67.85 115.6 67.75 L115.7 67.7 Q118.25 72 122.6 74.5 L124.05 75.35 Q124.8 75.7 125.05 76.5 L125.35 76.75 127.5 78.5 Q129.55 79.5 133.5 80.35 L139.8 82 139.85 82 143.5 82.65 143.65 82.7 145 83.35 Q146.15 84 147.15 84.8 L147.15 85.5 147 87.4 146 86.2 Q144.25 84.6 142 84.1 L139.45 83.9 139.4 83.8 Q138.85 83.75 138.7 83.45 L132.7 82.45 Q129.8 81.65 126.75 81.7 L126.75 81.6 123 80.25 122.9 80.25 Q121 81.05 119.8 82.55 L119.55 82.65 Q118.1 83.45 116.9 84.4 114.65 86.25 112.75 88.4 L108.45 93.45 108.55 93.75 Q108.55 94.1 107.55 95.05 106.4 96.15 105.5 96.15 104.45 96.15 103.15 94.95 L102.95 94.95 102.95 94.75 102.7 94.5 101.65 93.25 101.6 93.25 Q100.2 94.2 99.45 95.75 L99.2 96.35 99 96.5 Q98.75 97.4 97.95 98.1 96.05 99.85 91.3 99.85 88.4 99.85 86.35 99.1 L86.25 99.25 85.85 98.9 85.4 98.7 84.25 98.05 83.6 97.8 83.55 97.8 83.55 98.6 83.75 98.95 83.45 99.7 Q83 100.25 82.2 100.25 80.65 100.25 76.4 98.45 72.2 96.65 72.2 96.15 L72.25 96 71.85 95.95 71.8 95.85 Q63.4 92.25 54.5 89.15 L48.85 92.25 48.15 93.05 48 93.05 47.15 93.2 47.1 93.25 46.7 93.65 Q46.15 94.25 45.7 95.2 L45.05 96.3 45.15 96.45 Q45 97.15 45.15 98.1 45.6 100.45 45.05 102.05 L45 102 Q44 101.6 44.05 100.15 L44 100.1 43.05 99 43.05 98.8 Q42.75 97.45 43.35 96.2 L43.3 96.2 Q43.1 94.55 41.9 94.05 41.4 94 41.3 94.3 40 98.3 40.3 102.6 L40.3 102.75 Q39.75 103.3 39 103.65 38.4 103 38.75 101.3 39.35 98.6 39 94.6 L38.85 94.65 Q36.05 96.2 33.45 98.1 L33.5 97.95 Q33.7 97.2 33.15 96.2 L33.2 96 Q36.1 95.35 37.8 93.75 L33.55 84.7 32.05 81.5 Q28.05 72.7 24.65 63.05 24.15 61.65 23.15 61.5 L23.15 61.3 Q22.8 60 21.25 59.9 L21.15 59.95 Q19.3 61 17.9 62.5 L17.9 62.55 Q17 62.65 16.75 62.1 L16.85 61.55 Q17.7 59.7 19.55 58.75 19.05 57.45 20.4 58 21 57.25 19.8 56.95 L18.5 56.5 15.75 55.1 15.75 54.9 Q16.1 53.5 17.2 54.4 17.9 54.4 17.35 53.9 15.6 52.4 14.7 50.15 L14.7 50.05 Q14.5 49.3 15 48.55 L15.35 48.65 21.4 54.2 21.5 54.25 23.3 54.5 Q26.35 51.15 28.65 47 30 44.55 31.8 42.45 L33.95 39.9 Q38.4 34.55 43.2 29.7 L43.2 29.55 Q42.15 29.05 41 29.2 41.05 29 40.75 28.9 L39.25 28.2 35.25 24.6 35.2 24.4 Q34.4 22.7 34.35 20.2 L34.45 20.2 35.05 19.5 35.05 19.35 Q35.45 18.35 34.95 17.85 33.9 18.3 32.95 19.45 30.55 22.55 27.6 25.25 L20.85 31.55 15.75 36.2 9.8 41.15 Q5.4 44.55 4.6 45.6 L3.75 46.8 1.8 49.7 Q1.8 50.15 1.95 50.45 L5.45 59.05 Q7.25 63.8 9.2 68.3 9.3 70.4 10 71.85 12 76.4 13.45 81.45 14.9 86.55 16.6 91.4 L16.65 91.45 Q19.55 98.15 22.75 104.5 L22.7 104.6 Q22.5 104.85 24.1 109.25 26.05 114.55 26.45 116.4 L27.3 120.15 Q28.65 125.45 29.45 130.35 30.4 136.05 32.3 140.8 L33.9 145.75 Q35.25 150.85 37.55 155.05 41.05 161.35 43.7 168.35 L45.25 171.85 Q47.3 176.25 50.75 179.35 L50.8 179.5 Q53 183.15 56.05 185.95 56.55 186.05 57.3 186.6 L60.45 187.55 64.7 188.95 77.4 190.65 84.6 191.05 91.4 191.05 Q93.55 190.85 94.85 191 L104.15 189.15 Q103.35 189.15 102.7 183.25 L101.7 173.6 Q100.85 168.45 98.45 158 L95.35 142.55 Q93.55 133.5 92.75 127 L92.75 113.25 92.1 108.5 Q91.95 107.6 91.95 105.1 91.95 102.65 92.95 101.6 93.95 100.5 93.95 105.35 L94.2 109.1 Q94.4 111.5 94.8 112.85 L94.8 126.6 Q96.7 142.15 101.45 161.15 105.15 175.85 105.15 186.3 L105.15 187.9 Q105.05 188.9 104.5 189.1 L118.4 187.1 133.3 184.2 136.75 183.6 139.55 182.5 141.7 181.65 142.2 180.7 143.85 177 Q145.8 172.3 146.9 167.65 L147.6 163.75 148.55 154 149.1 147.3 149.2 145.2 149.05 139.05 148.75 135.95 148.45 133 Q148.45 132.3 148.7 132 148.75 131.1 148.95 130.8 149.15 131 149.35 131 149.65 131 149.75 130.8 M86.95 23.9 L83.9 23.9 Q78.15 24.4 73.45 25.4 70.7 25.95 69.25 27.8 L69.2 27.8 66.75 28.5 66.75 28.6 Q62.45 31 59.45 34.6 L59.45 34.75 Q56.65 39.5 55.25 45.8 L55.25 45.9 55.35 48.05 55.35 48.35 55.55 49.35 55.7 49.65 Q56.85 51.75 56.9 54.3 L57.85 60.4 60 65.9 Q62 71.1 62 72.65 L61.9 73.25 61.75 73.65 Q61.95 74.6 62.4 75 L62.5 75.1 62.75 75.25 Q63.9 75.85 65.4 76.1 L66.75 76.25 71.4 76.55 Q72.95 76.7 74.3 77.35 L78.95 77.65 83.85 78.2 87.1 78.5 88.95 78.35 93.05 76.9 93.1 76.8 Q98.85 73.8 104.7 71.5 L104.7 71.45 107.05 70.25 106.95 70.15 106.9 69.85 Q106.9 69.75 108.05 68.85 L108.05 68.8 108.25 68.7 108.6 68.35 Q110.2 66.7 111.25 64.35 L111.3 62.4 111.25 62.1 111.25 61.85 111.2 61.6 111.2 61.4 111.2 60.9 111.5 54.4 Q110.8 50.9 109.05 47 104.55 37.15 103.95 35.25 102.7 32.85 102 32.15 L93.85 25.6 Q93.05 25.05 92.25 24.85 89.5 24 86.95 23.9 M93.6 32.2 Q92.95 33.05 91.9 32.9 90.8 32.7 85 34.3 79.15 35.9 77.6 37.6 76 39.3 75.2 39.8 L72.15 41.6 Q73.7 37.6 75.65 35.9 77.55 34.2 84.45 31.45 L80.35 31.6 Q77.5 32.1 75.55 32.8 L72.15 33.7 Q70.75 33.85 71.3 33.45 L72.6 32.55 Q73.35 32 75.8 31 78.2 30 83.8 29.55 86.35 29.35 89 30.15 L92.25 31.1 Q93.25 31.4 93.6 32.2 M103.1 74.15 L103.05 74.2 97.1 77.8 97 77.8 Q94.25 78.2 92.65 79.65 L92.65 79.75 Q99.25 83.7 103.65 89.85 L103.65 90 103.8 90.85 103.9 90.9 Q104.5 92.15 105.7 92.75 L106.7 92 Q112.35 84.6 120.4 79.65 L120.45 79.65 120.25 78.65 120.35 78.45 120.35 78.05 Q117.2 73.85 113.4 70.2 L113.4 70.3 Q107.95 72.05 103.1 74.15 M94.95 85.9 L94.8 85.85 90.3 83.9 Q88.8 84.3 87.95 85.25 84.75 88.8 83.5 94.2 83.35 95 83.65 95.35 L85.25 95.6 86.7 96.15 86.95 96.2 87.05 96.25 87.55 96.4 89.45 96 91.35 95.65 91.45 95.65 91.6 95.6 91.8 95.6 94.95 96 95.7 95.65 Q96.1 94.75 96.65 94 L97.55 92.9 97.6 92.75 98.3 91.4 98.25 91.3 Q97.4 87.8 94.95 85.9 M84.65 83.1 L85.95 82 Q79.45 79.7 71.95 79.1 66.75 78.75 61.25 77.35 L61.2 77.5 Q59.45 82.25 57.15 86.5 L57.2 86.6 57.6 87.95 57.7 87.95 63 89.85 63.1 89.8 64 89.85 Q69.55 92.3 75.45 95.15 75.55 94.95 75.9 94.95 L78.5 95.3 Q79.25 95.3 81 94.05 L81.4 93.8 Q81.85 92.3 82.45 91 L82.45 90.85 Q83.05 86.55 84.65 83.1 M65.05 24.05 L62.1 20.65 Q60.3 19 59.35 16.6 L59.2 16.6 Q58.75 17.15 58.45 17.85 L58.35 17.9 Q56.15 20.15 53.55 21.95 L54.55 22.5 Q58.95 23.3 62.85 24.7 L62.85 24.65 Q64.3 25.05 65 24.25 65.25 24.3 65.05 24.05 M70.4 17.75 L70.35 17.85 Q70.25 18.4 70.4 18.75 69.95 19.1 69.95 19.75 L69.65 21.5 69.7 21.6 Q70.3 21.7 71.1 21.25 L71.15 21.15 Q72.25 20.2 72.85 18.75 L72.8 18.65 71.4 15.95 71.4 15.9 70.4 17.75 M69.65 13.65 L69.6 13.75 Q68 15.55 66.05 17 L66 17.15 65.45 18.2 65.55 18.3 Q65.55 18.6 65.75 18.55 67.65 18.3 68.9 17 L69 17 Q69.7 15.3 69.65 13.65 M63.25 9.6 L63.3 9.75 Q64.15 11.4 66.45 11.65 L66.5 11.7 67.9 13.2 68.05 13.2 Q69.05 12.75 69.75 13.2 L69.75 13.3 Q70.6 11.75 70.1 9.6 L70.05 9.5 66.6 9.6 66.6 9.5 63.25 9.6 M74 4.7 L72.45 4.35 Q68.7 2.2 63 2.2 L62.7 2.35 60 2 58.75 1.15 Q56.1 5.65 52.65 9.3 L52.65 9.15 50.2 11.25 47 13.7 46.25 14 Q45.05 14.3 41.55 16.8 L37.55 19.35 37.25 19.6 Q37.15 21.2 36.5 21.8 L36.5 21.95 36.5 23.3 36.6 23.3 Q37.6 24.95 39.15 26.15 L39.25 26.1 Q41 25.25 42.75 24.85 L42.8 24.75 43.35 24.25 43.5 24.25 45.85 23.4 45.95 23.35 Q54.5 22 58.05 15.55 L58.1 15.5 Q60.95 12.65 62.35 8.45 L64.15 8.15 69.6 7.65 Q72.15 7.25 74 8.3 L74 8.45 72.45 12.35 72.45 12.5 73.15 16.7 73.2 16.75 73.8 17.45 74.05 16.55 74.5 15.1 74.6 14.6 75.05 11.5 75.3 10.7 Q75.35 9.85 75.55 9.15 L76.4 7.1 76.45 6.9 76.3 6.35 74 4.7 M44.55 26.5 Q44.45 25.5 43.05 26.3 L43.05 26.25 Q41.9 25.8 40.55 26.75 40.8 27.3 41.6 27.4 43.5 27.7 44.55 26.6 L44.55 26.5 M65.8 123.35 L65.75 123.4 Q65.25 126.65 66 129.85 L66.05 129.95 69.5 130.1 69.65 130.1 70.7 131.1 70.8 131.15 Q71.5 135.8 71.05 140.85 L70.4 147.9 Q70.25 150.1 70.6 152.15 70.9 153.7 70.25 154.8 L63.55 155.65 63.4 155.65 58.6 155.1 Q57.75 155 57.25 154.35 L59.75 154.25 60.9 154.4 67.65 153.95 69.55 144.7 Q70.1 142.05 70.1 139.55 70.1 136.7 69.65 134.15 L68 132.45 67.9 132.45 61.4 131.05 61.35 130.95 59 131.2 58.9 131.25 Q58.1 133.45 59 135.8 59.35 136.75 59.15 137.5 58.25 138.95 56.6 138.85 L56.6 138.8 Q55.95 136.45 56.45 132.85 56.65 131.45 56.25 130.8 L52.65 130.35 52.5 130.35 Q51.7 133.7 51.95 136.65 L52.2 139.2 Q54.1 143.9 55.15 149.5 L55.95 152.55 56.7 154 Q57.25 154.65 56.6 155.1 56.1 155.75 55.8 154.95 L55.7 154.95 Q54.35 151 53.55 146.55 L53.55 146.35 51.7 140.1 Q50.8 136.95 51.05 133.3 51.2 130.95 51.95 128.65 L52.05 128.6 54.4 129.45 54.55 129.5 Q54.65 125.45 53.9 121.5 L53.95 121.5 55.15 119.9 55.4 119.95 58.4 120.85 58.75 120.8 Q59.8 125.05 59.4 129.8 L59.45 129.8 62.35 129.85 62.55 129.8 Q63.1 129.8 63.15 129.25 L63.15 129.05 Q63.2 125.3 62.15 122.25 L62.25 122.25 Q62.65 121.35 63.6 121 L63.65 120.95 Q65.05 120.7 66.3 121.3 L66.35 121.35 Q66.35 122.35 65.8 123.35 M61.75 191.35 L65.55 195.3 Q68.3 198.1 72.15 199.8 83.85 208.1 86.05 208.45 L87.45 209.35 88.95 209.75 98.75 210.3 119.8 208.75 119.95 208.7 119.95 208.65 Q122.8 207.6 124.6 205.5 126.7 204.55 128.15 202.95 L136.4 193.6 136.3 193.6 Q136.9 191.95 137.95 191.15 L138 191 138.8 189.55 138.95 189.5 Q140.1 188.3 140.9 186.75 L140.9 186.65 Q140.9 185.9 140.3 186.2 136.65 187.65 132.35 188.35 L130.7 188.55 122 189.95 121.5 190.25 Q119.25 190.5 114.75 191.7 106.2 194 101.7 194.65 L93.95 195 86.75 195 82 194.5 69.7 192.6 Q64.85 191.6 60.35 189.7 L61.75 191.35"/>
	            <path stroke="none" fill="#E7B698" d="M86.95 23.9 Q89.5 24 92.25 24.85 93.05 25.05 93.85 25.6 L102 32.15 Q102.7 32.85 103.95 35.25 104.55 37.15 109.05 47 110.8 50.9 111.5 54.4 L111.2 60.9 111.2 61.4 111.2 61.6 111.25 61.85 111.25 62.1 111.3 62.4 111.25 64.35 Q110.2 66.7 108.6 68.35 L108.25 68.7 108.05 68.8 108.05 68.85 Q106.9 69.75 106.9 69.85 L106.95 70.15 107.05 70.25 104.7 71.45 104.7 71.5 Q98.85 73.8 93.1 76.8 L93.05 76.9 88.95 78.35 87.1 78.5 83.85 78.2 78.95 77.65 74.3 77.35 Q72.95 76.7 71.4 76.55 L66.75 76.25 65.4 76.1 Q63.9 75.85 62.75 75.25 L62.5 75.1 62.4 75 Q61.95 74.6 61.75 73.65 L61.9 73.25 62 72.65 Q62 71.1 60 65.9 L57.85 60.4 56.9 54.3 Q56.85 51.75 55.7 49.65 L55.55 49.35 55.35 48.35 55.35 48.05 55.25 45.9 55.25 45.8 Q56.65 39.5 59.45 34.75 L59.45 34.6 Q62.45 31 66.75 28.6 L66.75 28.5 69.2 27.8 69.25 27.8 Q70.7 25.95 73.45 25.4 78.15 24.4 83.9 23.9 L86.95 23.9 M93.6 32.2 Q93.25 31.4 92.25 31.1 L89 30.15 Q86.35 29.35 83.8 29.55 78.2 30 75.8 31 73.35 32 72.6 32.55 L71.3 33.45 Q70.75 33.85 72.15 33.7 L75.55 32.8 Q77.5 32.1 80.35 31.6 L84.45 31.45 Q77.55 34.2 75.65 35.9 73.7 37.6 72.15 41.6 L75.2 39.8 Q76 39.3 77.6 37.6 79.15 35.9 85 34.3 90.8 32.7 91.9 32.9 92.95 33.05 93.6 32.2 M74 4.7 L76.3 6.35 76.45 6.9 76.4 7.1 75.55 9.15 Q75.35 9.85 75.3 10.7 L75.05 11.5 74.6 14.6 74.5 15.1 74.05 16.55 73.8 17.45 73.2 16.75 73.15 16.7 72.45 12.5 72.45 12.35 74 8.45 74 8.3 Q72.15 7.25 69.6 7.65 L64.15 8.15 62.35 8.45 Q60.95 12.65 58.1 15.5 L58.05 15.55 Q54.5 22 45.95 23.35 L45.85 23.4 43.5 24.25 43.35 24.25 42.8 24.75 42.75 24.85 Q41 25.25 39.25 26.1 L39.15 26.15 Q37.6 24.95 36.6 23.3 L36.5 23.3 36.5 21.95 36.5 21.8 Q37.15 21.2 37.25 19.6 L37.55 19.35 41.55 16.8 Q45.05 14.3 46.25 14 L47 13.7 50.2 11.25 52.65 9.15 52.65 9.3 Q56.1 5.65 58.75 1.15 L60 2 62.7 2.35 63 2.2 Q68.7 2.2 72.45 4.35 L74 4.7 M63.25 9.6 L66.6 9.5 66.6 9.6 70.05 9.5 70.1 9.6 Q70.6 11.75 69.75 13.3 L69.75 13.2 Q69.05 12.75 68.05 13.2 L67.9 13.2 66.5 11.7 66.45 11.65 Q64.15 11.4 63.3 9.75 L63.25 9.6 M69.65 13.65 Q69.7 15.3 69 17 L68.9 17 Q67.65 18.3 65.75 18.55 65.55 18.6 65.55 18.3 L65.45 18.2 66 17.15 66.05 17 Q68 15.55 69.6 13.75 L69.65 13.65 M70.4 17.75 L71.4 15.9 71.4 15.95 72.8 18.65 72.85 18.75 Q72.25 20.2 71.15 21.15 L71.1 21.25 Q70.3 21.7 69.7 21.6 L69.65 21.5 69.95 19.75 Q69.95 19.1 70.4 18.75 70.25 18.4 70.35 17.85 L70.4 17.75 M65.05 24.05 Q65.25 24.3 65 24.25 64.3 25.05 62.85 24.65 L62.85 24.7 Q58.95 23.3 54.55 22.5 L53.55 21.95 Q56.15 20.15 58.35 17.9 L58.45 17.85 Q58.75 17.15 59.2 16.6 L59.35 16.6 Q60.3 19 62.1 20.65 L65.05 24.05 M80.2 15.65 L79.9 15.85 79.95 15.7 80.2 15.65"/>
	            <path class="shirt" stroke="none" fill="#E2F1F1" d="M147 87.4 L146.75 88.75 146.2 91.95 Q145.85 95.8 142.1 98.3 L140.75 99.4 Q137.55 101.7 137.55 103.55 L137.85 108.05 Q138.3 111.3 139.25 112.2 L139.45 113.7 139.6 113.95 141.05 116.9 142.6 119.15 144.3 121.45 Q149.75 129.95 149.75 130.55 L149.75 130.8 Q149.65 131 149.35 131 149.15 131 148.95 130.8 148.75 131.1 148.7 132 148.45 132.3 148.45 133 L148.75 135.95 149.05 139.05 149.2 145.2 149.1 147.3 148.55 154 147.6 163.75 146.9 167.65 Q145.8 172.3 143.85 177 L142.2 180.7 141.7 181.65 139.55 182.5 136.75 183.6 133.3 184.2 118.4 187.1 104.5 189.1 Q105.05 188.9 105.15 187.9 L105.15 186.3 Q105.15 175.85 101.45 161.15 96.7 142.15 94.8 126.6 L94.8 112.85 Q94.4 111.5 94.2 109.1 L93.95 105.35 Q93.95 100.5 92.95 101.6 91.95 102.65 91.95 105.1 91.95 107.6 92.1 108.5 L92.75 113.25 92.75 127 Q93.55 133.5 95.35 142.55 L98.45 158 Q100.85 168.45 101.7 173.6 L102.7 183.25 Q103.35 189.15 104.15 189.15 L94.85 191 Q93.55 190.85 91.4 191.05 L84.6 191.05 77.4 190.65 64.7 188.95 60.45 187.55 57.3 186.6 Q56.55 186.05 56.05 185.95 53 183.15 50.8 179.5 L50.75 179.35 Q47.3 176.25 45.25 171.85 L43.7 168.35 Q41.05 161.35 37.55 155.05 35.25 150.85 33.9 145.75 L32.3 140.8 Q30.4 136.05 29.45 130.35 28.65 125.45 27.3 120.15 L26.45 116.4 Q26.05 114.55 24.1 109.25 22.5 104.85 22.7 104.6 L22.75 104.5 Q19.55 98.15 16.65 91.45 L16.6 91.4 Q14.9 86.55 13.45 81.45 12 76.4 10 71.85 9.3 70.4 9.2 68.3 7.25 63.8 5.45 59.05 L1.95 50.45 Q1.8 50.15 1.8 49.7 L3.75 46.8 4.6 45.6 Q5.4 44.55 9.8 41.15 L15.75 36.2 20.85 31.55 27.6 25.25 Q30.55 22.55 32.95 19.45 33.9 18.3 34.95 17.85 35.45 18.35 35.05 19.35 L35.05 19.5 34.45 20.2 34.35 20.2 Q34.4 22.7 35.2 24.4 L35.25 24.6 39.25 28.2 40.75 28.9 Q41.05 29 41 29.2 42.15 29.05 43.2 29.55 L43.2 29.7 Q38.4 34.55 33.95 39.9 L31.8 42.45 Q30 44.55 28.65 47 26.35 51.15 23.3 54.5 L21.5 54.25 21.4 54.2 15.35 48.65 15 48.55 Q14.5 49.3 14.7 50.05 L14.7 50.15 Q15.6 52.4 17.35 53.9 17.9 54.4 17.2 54.4 16.1 53.5 15.75 54.9 L15.75 55.1 18.5 56.5 19.8 56.95 Q21 57.25 20.4 58 19.05 57.45 19.55 58.75 17.7 59.7 16.85 61.55 L16.75 62.1 Q17 62.65 17.9 62.55 L17.9 62.5 Q19.3 61 21.15 59.95 L21.25 59.9 Q22.8 60 23.15 61.3 L23.15 61.5 Q24.15 61.65 24.65 63.05 28.05 72.7 32.05 81.5 L33.55 84.7 37.8 93.75 Q36.1 95.35 33.2 96 L33.15 96.2 Q33.7 97.2 33.5 97.95 L33.45 98.1 Q36.05 96.2 38.85 94.65 L39 94.6 Q39.35 98.6 38.75 101.3 38.4 103 39 103.65 39.75 103.3 40.3 102.75 L40.3 102.6 Q40 98.3 41.3 94.3 41.4 94 41.9 94.05 43.1 94.55 43.3 96.2 L43.35 96.2 Q42.75 97.45 43.05 98.8 L43.05 99 44 100.1 44.05 100.15 Q44 101.6 45 102 L45.05 102.05 Q45.6 100.45 45.15 98.1 45 97.15 45.15 96.45 L45.05 96.3 45.7 95.2 Q46.15 94.25 46.7 93.65 L47.1 93.25 47.15 93.2 48 93.05 48.15 93.05 48.85 92.25 54.5 89.15 Q63.4 92.25 71.8 95.85 L71.85 95.95 72.25 96 72.2 96.15 Q72.2 96.65 76.4 98.45 80.65 100.25 82.2 100.25 83 100.25 83.45 99.7 L83.75 98.95 83.55 98.6 83.55 97.8 83.6 97.8 84.25 98.05 85.4 98.7 85.85 98.9 86.25 99.25 86.35 99.1 Q88.4 99.85 91.3 99.85 96.05 99.85 97.95 98.1 98.75 97.4 99 96.5 L99.2 96.35 99.45 95.75 Q100.2 94.2 101.6 93.25 L101.65 93.25 102.7 94.5 102.95 94.75 102.95 94.95 103.15 94.95 Q104.45 96.15 105.5 96.15 106.4 96.15 107.55 95.05 108.55 94.1 108.55 93.75 L108.45 93.45 112.75 88.4 Q114.65 86.25 116.9 84.4 118.1 83.45 119.55 82.65 L119.8 82.55 Q121 81.05 122.9 80.25 L123 80.25 126.75 81.6 126.75 81.7 Q129.8 81.65 132.7 82.45 L138.7 83.45 Q138.85 83.75 139.4 83.8 L139.45 83.9 142 84.1 Q144.25 84.6 146 86.2 L147 87.4 M103.1 74.15 Q107.95 72.05 113.4 70.3 L113.4 70.2 Q117.2 73.85 120.35 78.05 L120.35 78.45 120.25 78.65 120.45 79.65 120.4 79.65 Q112.35 84.6 106.7 92 L105.7 92.75 Q104.5 92.15 103.9 90.9 L103.8 90.85 103.65 90 103.65 89.85 Q99.25 83.7 92.65 79.75 L92.65 79.65 Q94.25 78.2 97 77.8 L97.1 77.8 103.05 74.2 103.1 74.15 M84.65 83.1 Q83.05 86.55 82.45 90.85 L82.45 91 Q81.85 92.3 81.4 93.8 L81 94.05 Q79.25 95.3 78.5 95.3 L75.9 94.95 Q75.55 94.95 75.45 95.15 69.55 92.3 64 89.85 L63.1 89.8 63 89.85 57.7 87.95 57.6 87.95 57.2 86.6 57.15 86.5 Q59.45 82.25 61.2 77.5 L61.25 77.35 Q66.75 78.75 71.95 79.1 79.45 79.7 85.95 82 L84.65 83.1 M65.8 123.35 Q66.35 122.35 66.35 121.35 L66.3 121.3 Q65.05 120.7 63.65 120.95 L63.6 121 Q62.65 121.35 62.25 122.25 L62.15 122.25 Q63.2 125.3 63.15 129.05 L63.15 129.25 Q63.1 129.8 62.55 129.8 L62.35 129.85 59.45 129.8 59.4 129.8 Q59.8 125.05 58.75 120.8 L58.4 120.85 55.4 119.95 55.15 119.9 53.95 121.5 53.9 121.5 Q54.65 125.45 54.55 129.5 L54.4 129.45 52.05 128.6 51.95 128.65 Q51.2 130.95 51.05 133.3 50.8 136.95 51.7 140.1 L53.55 146.35 53.55 146.55 Q54.35 151 55.7 154.95 L55.8 154.95 Q56.1 155.75 56.6 155.1 57.25 154.65 56.7 154 L55.95 152.55 55.15 149.5 Q54.1 143.9 52.2 139.2 L51.95 136.65 Q51.7 133.7 52.5 130.35 L52.65 130.35 56.25 130.8 Q56.65 131.45 56.45 132.85 55.95 136.45 56.6 138.8 L56.6 138.85 Q58.25 138.95 59.15 137.5 59.35 136.75 59 135.8 58.1 133.45 58.9 131.25 L59 131.2 61.35 130.95 61.4 131.05 67.9 132.45 68 132.45 69.65 134.15 Q70.1 136.7 70.1 139.55 70.1 142.05 69.55 144.7 L67.65 153.95 60.9 154.4 59.75 154.25 57.25 154.35 Q57.75 155 58.6 155.1 L63.4 155.65 63.55 155.65 70.25 154.8 Q70.9 153.7 70.6 152.15 70.25 150.1 70.4 147.9 L71.05 140.85 Q71.5 135.8 70.8 131.15 L70.7 131.1 69.65 130.1 69.5 130.1 66.05 129.95 66 129.85 Q65.25 126.65 65.75 123.4 L65.8 123.35"/>
	            <path stroke="#000" fill="#383838" d="M94.95 85.9 Q97.4 87.8 98.25 91.3 L98.3 91.4 97.6 92.75 97.55 92.9 96.65 94 Q96.1 94.75 95.7 95.65 L94.95 96 91.8 95.6 91.6 95.6 91.45 95.65 91.35 95.65 89.45 96 87.55 96.4 87.05 96.25 86.95 96.2 86.7 96.15 85.25 95.6 83.65 95.35 Q83.35 95 83.5 94.2 84.75 88.8 87.95 85.25 88.8 84.3 90.3 83.9 L94.8 85.85 94.95 85.9"/>
	            <path stroke="none" fill="#1B1B1B" d="M44.55 26.5 L44.55 26.6 Q43.5 27.7 41.6 27.4 40.8 27.3 40.55 26.75 41.9 25.8 43.05 26.25 L43.05 26.3 Q44.45 25.5 44.55 26.5"/>
	            <path stroke="#000" fill="#0C0C0C" d="M61.75 191.35 L60.35 189.7 Q64.85 191.6 69.7 192.6 L82 194.5 86.75 195 93.95 195 101.7 194.65 Q106.2 194 114.75 191.7 119.25 190.5 121.5 190.25 L122 189.95 130.7 188.55 132.35 188.35 Q136.65 187.65 140.3 186.2 140.9 185.9 140.9 186.65 L140.9 186.75 Q140.1 188.3 138.95 189.5 L138.8 189.55 138 191 137.95 191.15 Q136.9 191.95 136.3 193.6 L136.4 193.6 128.15 202.95 Q126.7 204.55 124.6 205.5 122.8 207.6 119.95 208.65 L119.95 208.7 119.8 208.75 98.75 210.3 88.95 209.75 87.45 209.35 86.05 208.45 Q83.85 208.1 72.15 199.8 68.3 198.1 65.55 195.3 L61.75 191.35"/>
	            
	            <svg id="smile" x="59" y="42" viewBox="-20 -20 300 280">
	              <defs/>
	              <g id="smile1" visibility="visible">
	                <path stroke="none" fill="#000000" d="M13.25 5.75 Q13.65 8 12.1 9.7 10.65 11.25 8.65 12.3 L6.2 12.35 6.1 12.2 6.95 10.8 7 10.7 Q9.65 9.85 11.1 7.85 L12.5 5.9 Q12.8 5.4 13.25 5.75 M5.25 2.4 L6.7 2.15 6.85 2.15 Q9 3.6 9.3 6.2 L9.3 6.35 Q8.25 8.75 6.25 10.25 L6.1 10.3 Q3.7 8.8 3.5 5.2 L3.5 5.05 Q4 3.4 5.2 2.55 L5.25 2.4 M4.1 0 L4.4 0 Q4.35 1.35 2.9 2.2 L2 2.7 Q1.55 4.4 0.4 5.25 L0.3 5.1 0 4.75 Q0.75 1.55 3.2 0.2 L4.1 0"/>
	              </g>
                  <svg x="-20" y="-3">
                      <defs/>
                        <g id="smile2" visibility="hidden">
                            <path stroke="none" fill="#000000" d="M30.45 10.65 L28.7 12.85 26.55 13.9 23.5 14.8 Q20.75 15.3 21.5 12.95 22.25 10.6 23.1 10.05 26.7 7.05 29.95 6.65 33.3 6.1 31.7 8.5 L30.45 10.65 M34.65 10.2 Q33.5 12.9 31.95 14.6 30.5 16.15 28.15 16.75 L25.6 17.2 23.6 16.65 Q21.75 16.3 24.3 16 L26.85 15.6 Q29.5 14.75 30.75 13.7 32 12.65 32.45 11.85 32.85 11 34.65 10.2 M24.3 5.2 Q22.4 5.8 21.85 7.6 L20.25 10.15 19.25 12.5 18.9 11.3 Q20.6 6.45 23.05 5.1 L24.2 4.8 25.55 4.6 Q26.15 4.55 24.3 5.2"/>
                      </g>
                      <g id="smile3" visibility="hidden">
                        <path stroke="none" fill="#000000" d="M30.95 11.15 L27.05 13.7 Q26 14.45 21.75 15.35 17.45 16.15 18.35 13.9 18.6 13.25 19.25 13.1 L19.2 13 19.25 13 19.25 13.1 22.1 11.8 24.85 10.6 Q26 10.2 27.25 9 L28.8 7.4 29.7 6.85 Q35.35 3.4 34.6 6.4 33.85 9.4 30.95 11.15 M34.4 10.4 Q36.9 8.9 33.6 12.65 30.25 16.35 27.9 16.95 L25.35 17.4 Q25.15 17.2 23.35 16.85 21.5 16.5 24.05 16.2 L26.6 15.8 Q29.25 14.95 30.5 13.9 L32.2 12.05 Q32.6 11.2 34.4 10.4 M24.05 5.4 Q22.15 6 20.95 7.05 19.7 7.35 19.55 9.15 L18.6 10.55 Q18.45 7.05 20.7 6.15 23.2 5.1 23.95 5 L25.3 4.8 Q25.9 4.75 24.05 5.4"/>
                      </g>
                      <g id="smile4" visibility="hidden">
                        <path stroke="none" fill="#000000" d="M30.9 7.95 Q31.65 7.7 33.9 5.5 36.6 2.8 36.7 4.6 36.75 6.4 31.55 10.5 26.35 14.55 23.55 15.65 20.7 16.7 16.1 16.6 11.5 16.45 11.55 14.1 11.55 11.75 16.05 12.15 L17.9 12.35 19.8 12.35 Q23.05 11.6 27.1 9.75 L30.9 7.95 M35.35 11.6 Q31.95 15.35 28.9 16.5 L25.7 17.45 23.7 17.1 Q21.85 16.95 24.4 16.7 26.95 16.45 28.3 15.75 L30.9 14.1 32.8 12.85 34.75 10.45 Q38.7 7.8 35.35 11.6 M21.45 6.95 Q20.15 7.4 19 8.7 L18.8 8.75 18.5 8.9 Q19.45 6.8 21.05 6.2 23.55 5.15 24.3 5.05 L25.65 4.85 Q26.25 4.8 24.4 5.45 22.5 6.05 21.45 6.95"/>
                      </g>
                      <g id="smile5" visibility="hidden">
                        <path stroke="none" fill="#000000" d="M34.2 4.35 Q36.45 3.05 39.35 3.95 42.25 4.75 42.5 6.1 42.75 7.4 37.35 11.45 32.05 15.45 24.35 16.6 18.6 17.45 14.35 16.6 L10.25 15.55 Q8.45 14.85 7.65 13.55 5.85 10.6 11.75 11 L20.6 10.2 Q26.45 9.2 27.75 8.4 33.4 4.8 34.2 4.35 M24.25 5.75 Q22.35 6.35 21.3 7.25 20 7.7 18.85 9 L18.65 9.05 18.35 9.2 Q19.3 7.1 20.9 6.5 23.4 5.45 24.15 5.35 L25.5 5.15 Q26.1 5.1 24.25 5.75 M18.85 13.2 L19.4 13.35 19.45 13.35 18.85 13.2"/>
                      </g>
                      <g id="smile6" visibility="hidden">
                        <path stroke="none" fill="#000000" d="M43.8 9.65 L40 12.6 Q37.7 14.35 35.45 15.25 32.35 16.45 27.7 17 L12.65 17.6 Q7.9 17.8 5.2 15.2 2.35 12.45 9.3 11.05 10 10.6 13.25 9.95 18.25 8.95 19.85 8.1 21.95 7 25.85 5.85 L30.05 4.45 Q39.2 -0.6 42.65 2.9 44.4 4.65 44.25 7.5 44.2 9.2 43.8 9.65 M33.75 5.45 L29.35 7.3 30.65 11.25 35.2 9.05 33.75 5.45 M36.6 8.5 L41.55 6 39.7 2.7 35.05 5.05 36.6 8.5 M28.2 7.6 L23.2 9.15 24.05 12 28.85 11.55 28.2 7.6 M21.55 9.5 L16.2 10.65 16.9 13.55 22 12.2 21.55 9.5 M6.75 13.3 L7.05 14.6 13.75 14.6 15.15 14.25 14.4 11.3 6.75 13.3"/>
                        <path stroke="none" fill="#FFFFFF" d="M6.75 13.3 L14.4 11.3 15.15 14.25 13.75 14.6 7.05 14.6 6.75 13.3 M36.6 8.5 L35.05 5.05 39.7 2.7 41.55 6 36.6 8.5 M33.75 5.45 L35.2 9.05 30.65 11.25 29.35 7.3 33.75 5.45 M28.2 7.6 L28.85 11.55 24.05 12 23.2 9.15 28.2 7.6 M21.55 9.5 L22 12.2 16.9 13.55 16.2 10.65 21.55 9.5"/>
                      </g>
                      <g id="smile7" visibility="hidden">
                        <path stroke="none" fill="#000000" d="M45.45 6.1 L47.2 2.75 46.7 1.45 43.6 1.45 41.45 2.6 43.95 7 45.45 6.1 M46.55 8 Q44.7 8.95 39.75 12.75 37.45 14.5 35.2 15.4 32.1 16.6 27.45 17.15 L13.35 17.8 8.7 17.55 Q4.6 17.3 0.6 14.35 -0.15 13.8 0 12.9 L0.25 12.1 Q0.25 11.6 4.2 10.65 L9.35 9.5 13.35 8.2 26 4.7 28.05 4 Q31.3 2.9 35.65 1.7 41.5 0.05 43.8 0 50.65 -0.25 49.9 3.2 49.1 6.65 46.55 8 M34.9 5.1 L37.65 10 41.5 7.9 39.85 2.9 34.9 5.1 M13.75 15.85 L14.95 15.55 14.35 11.15 8.5 11.95 9.5 15.45 13.75 15.85 M2.05 12.5 L2.65 13.95 6.9 15.1 6.7 12.15 2.05 12.5 M22.05 14.45 L21.45 9.65 16.05 10.9 17.15 15.2 22.05 14.45 M27.8 8.1 L22.95 9.35 24.55 14 28.8 13.15 27.8 8.1 M35.25 11.1 L33.55 5.85 29.2 7.6 31.3 12.5 35.25 11.1"/>
                        <path stroke="none" fill="#FFFFFF" d="M35.25 11.1 L31.3 12.5 29.2 7.6 33.55 5.85 35.25 11.1 M45.45 6.1 L43.95 7 41.45 2.6 43.6 1.45 46.7 1.45 47.2 2.75 45.45 6.1 M34.9 5.1 L39.85 2.9 41.5 7.9 37.65 10 34.9 5.1 M27.8 8.1 L28.8 13.15 24.55 14 22.95 9.35 27.8 8.1 M22.05 14.45 L17.15 15.2 16.05 10.9 21.45 9.65 22.05 14.45 M2.05 12.5 L6.7 12.15 6.9 15.1 2.65 13.95 2.05 12.5 M13.75 15.85 L9.5 15.45 8.5 11.95 14.35 11.15 14.95 15.55 13.75 15.85"/>
                      </g>
                   </svg>
	            </svg>    
	            <svg x="43" y="33" id="glasses">
	                <defs/>
	                <g>
	                    <path stroke="none" fill="#000000" d="M71.4 0.75 L73.2 2.15 74.75 3.8 75.2 4.95 75.85 7.15 77.25 12.65 77.5 15.65 Q77.35 19 76.6 21.65 L76 23.9 Q75.7 24.9 73.95 25.8 66.25 29.4 65 29.65 L59.45 31.15 Q55.2 32.35 51 31.75 L49.1 30.6 Q46.65 28.5 45.5 25 L44.8 23.15 Q43.45 19.9 41.75 19.4 L39.35 18.95 Q38.65 19.05 37.55 20.75 37.2 21.95 37.1 23.95 37 26.5 36.55 28.35 35.4 32.3 33.7 35.5 32.75 37.3 31.1 38.3 26.2 41.25 20.35 43.25 16.85 44.15 16.4 44.5 L16.4 44.45 Q14.15 44.95 11.45 44.45 L9.75 43.35 7.6 41.7 Q6.5 40.85 4.15 37.75 1.8 34.65 0.25 29.75 L0.05 28.75 Q-0.25 25 1.25 22.95 L2.35 22 Q3.05 21.35 3.45 21.15 L6.45 19.8 Q8.35 19.05 9.45 18.4 L15.85 16.25 Q17.85 15.3 20.2 14.65 L24.9 13.8 25.8 13.6 Q28.55 13.4 30.55 14.3 L31.55 14.65 32.3 14.95 33.55 15 Q36.7 14.9 38.3 13.9 L42.7 9.7 44 8.3 45.35 6.9 46.8 5.8 46.95 5.75 49.25 4.85 60.3 1.45 61.5 1.05 63.95 0.25 Q65.45 -0.25 69.2 0.25 L71.4 0.75 M69.6 3.3 L66 3.25 Q64 3.1 62.45 3.75 L57.45 4.6 Q53.4 5.8 49.75 7.35 47.65 8.25 46.45 9.9 L44.45 11.85 Q42.75 13.4 42.4 13.95 L39.7 15.85 37.35 17.1 35.3 17.75 32.25 17.6 Q32 17.4 30.95 16.9 L29.15 15.8 29.05 15.8 Q28.25 14.9 25.25 14.8 L23.9 15.2 21.85 15.75 Q13.7 18.15 6.25 21.35 L6.2 21.45 5.1 22.15 Q3.9 22.8 3.5 23.15 L3.9 22.4 Q2.55 24.55 1.75 27.15 1.7 28.95 2.1 30.3 3.35 34.5 6.15 37.25 L7.1 38.4 Q8.45 40.85 10.75 42.35 15.55 42.6 19.2 41.25 21.6 40.4 27.8 37.55 30.25 36.6 31.95 34.7 33.35 33.15 33.85 30.9 L34.55 26.65 34.55 26.55 Q34.1 24.25 34.55 22.05 34.6 20.5 35.9 19.15 L39.3 17.3 Q40.8 16.5 41.6 16.45 L42.55 16.55 43.6 17.25 Q44.45 17.75 45.05 19 45.4 20.6 45.9 22.05 L46.75 25.15 Q48 30.7 54.8 30.65 L60.4 29.85 65.2 28.1 67.55 26.95 Q71.9 24.75 74.4 20.7 75.5 16.95 74.5 13.1 L73.85 10.75 Q72.7 6 69.6 3.3 M67.8 5.65 Q69.6 6.45 70.55 8.35 L72.35 11.85 Q73.3 18.05 70.85 20.4 68.35 22.7 66.45 24 64.55 25.3 60.75 26.55 L56.75 27.25 Q53.55 27.7 51.85 26.85 50.15 26 49.05 22.25 L48.3 20.3 Q47.2 17.55 46.5 14.15 47.45 10.95 50.25 9.5 53.3 7.9 56.25 7.55 59.05 5.75 62.8 5.65 L62.9 5.65 Q65.2 4.4 67.8 5.65 M67.4 12.45 Q68.8 12.9 68.55 15 68.2 17.75 67.4 19.45 65.8 21.75 62.7 22.55 L62.6 22.2 62.6 21.9 Q65.65 20.15 67 16.75 67.7 14.95 66.95 13.15 66.85 12.8 67.4 12.45 M63.65 22.95 Q66.85 22.5 69 21 71.25 19.4 71.1 16.25 70.9 10.1 67.1 7.35 63.4 6.45 59.9 7.8 L55.85 9.15 53.3 9.9 50.65 11.1 49.65 11.95 Q49.4 12.3 49.1 13.15 L49.3 16.2 49.85 19.85 49.9 20.15 Q50.8 23.5 53.15 25.35 54.6 25.55 55.5 25.35 63.2 23.5 63.65 22.95 M54.05 11.75 Q54.9 12.25 53.6 12.6 L53.5 12.6 Q52.75 13.3 52.4 14.45 L52.3 14.45 Q52.45 15.8 51.75 16.7 L51.7 16.85 Q50.45 16.1 51 14.15 L51 13.95 Q51.7 13.1 51.85 12.45 L51.85 12.3 Q52.75 11.55 53.9 11.75 L54.05 11.75 M29.8 18.55 L30.2 18.7 Q32.35 23.25 31.05 29.15 L30.5 31.5 30.45 31.65 Q29.45 33.85 27.3 34.9 25.4 35.8 23.55 36.65 19.55 38.5 15 39.9 L12.05 40.2 Q5.75 35.55 4.05 26.95 L4.05 26.85 4.45 25.25 5.65 23.85 6.35 22.95 11.15 20.4 11.15 20.3 15.75 18.95 Q17.45 18.35 19.75 18.15 21.8 18 23.9 17.25 26.45 16.3 28.95 17.7 L29.8 18.55 M28.3 18.85 L28.2 18.8 Q26.9 18.1 25.25 18.15 L18.25 20.1 Q17.3 20.3 16.45 20.7 L8.15 24.1 8.1 24.2 6.65 25.55 6.55 27.7 Q6.75 28.8 8.35 32.25 9.85 35.55 11.85 38.3 14.3 38.7 16.55 37.6 17.85 36.95 20.75 35.85 L22.65 35.25 26.85 33.55 28.6 31.5 Q29.5 29.05 29.85 26.85 30.6 22 28.3 18.85 M11.85 24.5 L11.75 24.5 Q10.8 25.65 10.1 27.1 L10 27.15 Q10.25 28.65 9.6 29.35 L9.55 29.45 Q8.6 29.4 8.85 28.15 L8.85 28 Q9.4 24 12.45 23.25 L12.45 23.35 Q13.1 24.25 11.85 24.5 M16.55 34.85 Q21.25 33.7 23.85 29.8 L23.95 29.75 Q24.1 27.7 24.9 26 L24.95 25.95 Q25.7 26.85 25.2 28.55 L24.1 31.45 Q22.75 34.1 19.9 35.35 L17.95 36.15 Q17.1 35.75 16.6 34.95 L16.55 34.85"/>
	                    <path stroke="#000" stroke-width="0.2" fill="#1B1B1B" d="M69.6 3.3 Q72.7 6 73.85 10.75 L74.5 13.1 Q75.5 16.95 74.4 20.7 71.9 24.75 67.55 26.95 L65.2 28.1 60.4 29.85 54.8 30.65 Q48 30.7 46.75 25.15 L45.9 22.05 Q45.4 20.6 45.05 19 44.45 17.75 43.6 17.25 L42.55 16.55 41.6 16.45 Q40.8 16.5 39.3 17.3 L35.9 19.15 Q34.6 20.5 34.55 22.05 34.1 24.25 34.55 26.55 L34.55 26.65 33.85 30.9 Q33.35 33.15 31.95 34.7 30.25 36.6 27.8 37.55 21.6 40.4 19.2 41.25 15.55 42.6 10.75 42.35 8.45 40.85 7.1 38.4 L6.15 37.25 Q3.35 34.5 2.1 30.3 1.7 28.95 1.75 27.15 2.55 24.55 3.9 22.4 L3.5 23.15 Q3.9 22.8 5.1 22.15 L6.2 21.45 6.25 21.35 Q13.7 18.15 21.85 15.75 L23.9 15.2 25.25 14.8 Q28.25 14.9 29.05 15.8 L29.15 15.8 30.95 16.9 Q32 17.4 32.25 17.6 L35.3 17.75 37.35 17.1 39.7 15.85 42.4 13.95 Q42.75 13.4 44.45 11.85 L46.45 9.9 Q47.65 8.25 49.75 7.35 53.4 5.8 57.45 4.6 L62.45 3.75 Q64 3.1 66 3.25 L69.6 3.3 M67.8 5.65 Q65.2 4.4 62.9 5.65 L62.8 5.65 Q59.05 5.75 56.25 7.55 53.3 7.9 50.25 9.5 47.45 10.95 46.5 14.15 47.2 17.55 48.3 20.3 L49.05 22.25 Q50.15 26 51.85 26.85 53.55 27.7 56.75 27.25 L60.75 26.55 Q64.55 25.3 66.45 24 68.35 22.7 70.85 20.4 73.3 18.05 72.35 11.85 L70.55 8.35 Q69.6 6.45 67.8 5.65 M29.8 18.55 L28.95 17.7 Q26.45 16.3 23.9 17.25 21.8 18 19.75 18.15 17.45 18.35 15.75 18.95 L11.15 20.3 11.15 20.4 6.35 22.95 5.65 23.85 4.45 25.25 4.05 26.85 4.05 26.95 Q5.75 35.55 12.05 40.2 L15 39.9 Q19.55 38.5 23.55 36.65 25.4 35.8 27.3 34.9 29.45 33.85 30.45 31.65 L30.5 31.5 31.05 29.15 Q32.35 23.25 30.2 18.7 L29.8 18.55"/>
	                    <path stroke="none"  fill="#CCCCCC" d="M67.4 12.45 Q66.85 12.8 66.95 13.15 67.7 14.95 67 16.75 65.65 20.15 62.6 21.9 L62.6 22.2 62.7 22.55 Q65.8 21.75 67.4 19.45 68.2 17.75 68.55 15 68.8 12.9 67.4 12.45 M63.65 22.95 Q63.2 23.5 55.5 25.35 54.6 25.55 53.15 25.35 50.8 23.5 49.9 20.15 L49.85 19.85 49.3 16.2 49.1 13.15 Q49.4 12.3 49.65 11.95 L50.65 11.1 53.3 9.9 55.85 9.15 59.9 7.8 Q63.4 6.45 67.1 7.35 70.9 10.1 71.1 16.25 71.25 19.4 69 21 66.85 22.5 63.65 22.95 M54.05 11.75 L53.9 11.75 Q52.75 11.55 51.85 12.3 L51.85 12.45 Q51.7 13.1 51 13.95 L51 14.15 Q50.45 16.1 51.7 16.85 L51.75 16.7 Q52.45 15.8 52.3 14.45 L52.4 14.45 Q52.75 13.3 53.5 12.6 L53.6 12.6 Q54.9 12.25 54.05 11.75 M28.3 18.85 Q30.6 22 29.85 26.85 29.5 29.05 28.6 31.5 L26.85 33.55 22.65 35.25 20.75 35.85 Q17.85 36.95 16.55 37.6 14.3 38.7 11.85 38.3 9.85 35.55 8.35 32.25 6.75 28.8 6.55 27.7 L6.65 25.55 8.1 24.2 8.15 24.1 16.45 20.7 Q17.3 20.3 18.25 20.1 L25.25 18.15 Q26.9 18.1 28.2 18.8 L28.3 18.85 M16.55 34.85 L16.6 34.95 Q17.1 35.75 17.95 36.15 L19.9 35.35 Q22.75 34.1 24.1 31.45 L25.2 28.55 Q25.7 26.85 24.95 25.95 L24.9 26 Q24.1 27.7 23.95 29.75 L23.85 29.8 Q21.25 33.7 16.55 34.85 M11.85 24.5 Q13.1 24.25 12.45 23.35 L12.45 23.25 Q9.4 24 8.85 28 L8.85 28.15 Q8.6 29.4 9.55 29.45 L9.6 29.35 Q10.25 28.65 10 27.15 L10.1 27.1 Q10.8 25.65 11.75 24.5 L11.85 24.5"/>
	                </g>
	           	</svg>
	           	<svg x="8" y="-6" viewBox="-50 -50 300 280">
	                <defs/>
	                <g id="eyes">
	                    <path stroke="none" fill="#000000" d="M45.6 0.2 L45.6 0.25 Q46.35 1.2 47.8 4.5 L47.25 5.45 47.2 5.55 Q45.75 5.7 43.55 4.9 L41.65 4.1 Q40.5 3.6 40.2 2.15 L41.2 1.05 Q42.5 0 43.7 0.05 L43.85 0 45.6 0.2 M4.55 12.25 L4.6 12.4 Q5.1 16.75 2.65 18.65 L2.55 18.8 1.1 18.9 1.1 18.8 Q-0.1 17.9 0 15.7 L0 15.6 0.5 13.55 0.55 13.4 2.25 11.65 2.3 11.5 3.75 11.25 3.9 11.25 4.55 12.25"/>
	                </g>
	           	</svg>
				<svg  x="28" y="44" viewBox="-50 -50 300 280">
	            	<defs/>
	              	<g id="neckTail">
	              		<path stroke="none" fill="#000000" d="M43.35 45.3 Q38.7 38.15 37.3 35.4 L31.4 25.85 29.4 22.95 29.25 22.95 Q28 22.85 27.5 23.55 L27.35 23.6 Q23.35 25.5 19.2 28.05 15.9 31.25 12.95 34.8 L12.1 35.95 9.7 39.5 7.7 42.15 Q6.65 46.6 6.1 51.7 L5.1 57.05 Q3.65 62.2 3.2 67.9 L3.2 68.05 Q3.1 69.8 3.6 70.9 4.3 71 4.6 70.7 L6.4 69 Q13.2 63.25 21.15 58.35 23.2 57.1 24.85 55.55 L25 55.5 31.55 51.75 33.6 50.3 33.7 50.25 37.75 48.5 40 47.45 43.2 45.35 43.35 45.3 M44.45 46.95 L43.9 47.15 Q41.6 47.8 40.5 48.45 L37.3 49.95 36.5 50.3 36.35 50.55 35.7 50.75 Q33.55 51.65 31.7 52.8 L30.95 53.25 25.65 56.55 Q21.55 59 17.65 61.6 9.85 66.85 3.2 73.25 L3.2 73.4 2.35 76.85 2.35 77 Q2.8 78.9 3.6 80.4 6.25 83.35 8.55 86.65 L9.35 87.45 11.6 89.7 Q12.25 89.8 14.35 92.15 L16.95 95.2 22.45 90.1 22.5 90.1 Q24.35 88.7 26.3 87.45 L26.35 87.4 30.95 83.75 31.1 83.7 38.25 79.35 38.3 79.25 Q40.75 77.7 43.35 76.3 L46.35 75.3 Q47.4 74.85 48.4 74.35 50.75 73.15 53.3 72.3 L53.7 72.3 54.6 72.3 Q54.05 63.05 45.65 48.8 L44.45 46.95 M20.4 2.75 L30.25 18.75 30.3 18.9 Q31.3 21.15 32.8 23.25 L35.25 27.2 37.7 31.45 40.8 36.65 49.85 51.95 Q54.5 61.25 55.3 63.5 56.45 66.75 56.65 71.6 L56.65 73.5 56.65 75.6 56.45 76.45 56.4 76.55 54.2 79.9 51.1 84.2 48.55 87.05 Q46.7 89.15 46.25 90.25 L46.15 90.3 42.9 93.45 43 93.5 40.2 97.05 40.2 97.15 39.8 97.3 30.95 107.5 Q29.5 109.35 27.35 110.45 L27.25 110.45 Q23.55 107 20.35 103.15 19.4 101.65 17.05 98.95 L14.6 96.45 11.1 92.9 Q6.9 88.7 3.5 84 L0.95 80.1 0 78.35 Q0.45 71.25 1.5 65.25 3.15 55.4 4.45 44.6 L5.25 36.75 5.15 30.95 Q5.15 28.1 6.15 22.3 L6.65 18 6.95 14.7 6.7 11.85 Q6.7 9.8 6.85 8.95 L7.4 5.35 Q7.85 1.7 8.95 1.2 10.25 0.25 13.7 0.05 17.9 -0.2 18.9 1.2 20.05 2 20.35 2.7 L20.4 2.75 M22.65 24.15 L26.65 21.35 Q27.75 20.65 28.4 20.35 L25.9 16.35 24.55 14.05 Q22.45 10 20.1 6.95 20.55 7.2 20.1 6.65 18.8 4.7 16.75 3.5 L16.6 3.5 11.8 3.3 11.75 3.45 10.6 3.9 10.6 4.05 9.9 4.95 Q10.5 10.1 9.7 15.35 8.9 20.4 8.7 25.3 L8.45 32.95 Q8.35 35.7 7.85 38.05 L7.85 39.1 7.85 39.3 8.8 38.65 11.65 34.75 Q14.85 30.5 16.2 29.1 18.45 26.85 22.65 24.15 M18.6 94.7 L17.6 96 18.85 97.45 24.15 103.35 Q25.65 104.95 26.95 105.55 27.35 105.1 28.35 104.95 L28.4 104.8 Q32.15 101.7 34.95 97.55 35.65 97.4 39.75 93.05 L40 92.25 47.25 85 49.7 82.5 Q52.35 80.05 53.25 76.6 L53.65 73.95 53.65 73.9 51.45 74.15 48.45 75.5 48.15 75.6 Q38.9 79.3 31.25 84.75 L31.25 84.8 26.25 88.45 Q21.1 92.35 18.65 94.6 L18.6 94.7"/>
	                	<path stroke="#000" fill="#383838" d="M18.6 94.7 L18.65 94.6 Q21.1 92.35 26.25 88.45 L31.25 84.8 31.25 84.75 Q38.9 79.3 48.15 75.6 L48.45 75.5 51.45 74.15 53.65 73.9 53.65 73.95 53.25 76.6 Q52.35 80.05 49.7 82.5 L47.25 85 40 92.25 39.75 93.05 Q35.65 97.4 34.95 97.55 32.15 101.7 28.4 104.8 L28.35 104.95 Q27.35 105.1 26.95 105.55 25.65 104.95 24.15 103.35 L18.85 97.45 17.6 96 18.6 94.7 M43.35 45.3 L43.2 45.35 40 47.45 37.75 48.5 33.7 50.25 33.6 50.3 31.55 51.75 25 55.5 24.85 55.55 Q23.2 57.1 21.15 58.35 13.2 63.25 6.4 69 L4.6 70.7 Q4.3 71 3.6 70.9 3.1 69.8 3.2 68.05 L3.2 67.9 Q3.65 62.2 5.1 57.05 L6.1 51.7 Q6.65 46.6 7.7 42.15 L9.7 39.5 12.1 35.95 12.95 34.8 Q15.9 31.25 19.2 28.05 23.35 25.5 27.35 23.6 L27.5 23.55 Q28 22.85 29.25 22.95 L29.4 22.95 31.4 25.85 37.3 35.4 Q38.7 38.15 43.35 45.3"/>
	                	<path class="neckTailColor" stroke="none" fill="#990000" d="M44.45 46.95 L45.65 48.8 Q54.05 63.05 54.6 72.3 L53.7 72.3 53.3 72.3 Q50.75 73.15 48.4 74.35 47.4 74.85 46.35 75.3 L43.35 76.3 Q40.75 77.7 38.3 79.25 L38.25 79.35 31.1 83.7 30.95 83.75 26.35 87.4 26.3 87.45 Q24.35 88.7 22.5 90.1 L22.45 90.1 16.95 95.2 14.35 92.15 Q12.25 89.8 11.6 89.7 L9.35 87.45 8.55 86.65 Q6.25 83.35 3.6 80.4 2.8 78.9 2.35 77 L2.35 76.85 3.2 73.4 3.2 73.25 Q9.85 66.85 17.65 61.6 21.55 59 25.65 56.55 L30.95 53.25 31.7 52.8 Q33.55 51.65 35.7 50.75 L36.35 50.55 36.5 50.3 37.3 49.95 40.5 48.45 Q41.6 47.8 43.9 47.15 L44.45 46.95 M22.65 24.15 Q18.45 26.85 16.2 29.1 14.85 30.5 11.65 34.75 L8.8 38.65 7.85 39.3 7.85 39.1 7.85 38.05 Q8.35 35.7 8.45 32.95 L8.7 25.3 Q8.9 20.4 9.7 15.35 10.5 10.1 9.9 4.95 L10.6 4.05 10.6 3.9 11.75 3.45 11.8 3.3 16.6 3.5 16.75 3.5 Q18.8 4.7 20.1 6.65 20.55 7.2 20.1 6.95 22.45 10 24.55 14.05 L25.9 16.35 28.4 20.35 Q27.75 20.65 26.65 21.35 L22.65 24.15"/>
	            	</g>
	         	</svg>
	         	<svg x="64" y="35" viewBox="-50 -50 300 280">           
	              <g id="leftArm" transform="rotate(10 32 0)">
	                <path stroke="none" fill="#000000" d="M88.8 36.9 L83.2 26.85 Q76 14.3 72.8 14.3 L68.7 16.1 68.35 15.95 67.75 16.2 Q64.1 17.7 60.15 19 55.5 20.5 50.8 22.4 L50.85 22.55 52.35 25.35 Q53.2 26.25 54 28.05 L55.55 30.25 Q55.8 30.1 56.3 30.75 L58.05 33.9 59.8 38.15 61.55 42.4 Q62.5 44.75 62.8 46.65 L63.95 50.8 Q64.65 53.45 64.75 55.05 64.8 57.2 66.3 63.35 L66.25 63.65 66.45 64.35 66.7 66.3 67.2 69.45 69.85 67.1 70.05 66.95 Q70.3 65.35 76.2 61.55 L82.95 57.5 89.45 53 90.5 51.85 90.6 51.8 91.15 51.65 Q92.4 50.1 92.4 47.7 92.4 46 90.5 41.55 89.15 38.4 88.8 36.9 M31.8 1.1 L31.75 1.05 31.9 0.5 31.9 0.25 33.15 0 Q36.75 1.95 38.55 5.65 40.5 9.5 43.05 12.8 43.55 12.8 45 14.95 L47.05 17.75 Q48.95 20.35 49.6 20.95 L51.5 20.45 51.65 20.4 Q52.95 19.4 54.65 18.85 L64.25 15.55 64.25 15.5 Q64.25 15.15 70.35 13.1 74.45 11.7 75.8 11.55 L76.2 11.35 76.3 11.35 Q80.8 19.85 85.85 27.85 L87.15 29.4 88.5 31.45 89.45 34.15 Q89.95 33.75 92.4 35.5 L96.4 38.5 100.65 41.35 100.85 41.45 103.65 42.95 103.7 43 103.4 46.3 102.8 51.2 101.75 57.2 Q101.6 58.35 101.95 59.5 L105.85 58.95 105.95 58.95 Q106.75 62.55 106.55 67.3 106.45 69.65 106.65 71.55 L107.6 80.4 108.45 89.8 108.45 91.7 110.15 100.7 110.15 100.75 110.2 100.95 110.2 101.15 Q110.35 103.4 111 104.9 L111.05 105 Q110.95 105.9 110.05 106.1 L110.05 106.15 Q107.3 105.75 104.95 107 L104.9 107 96.65 107.9 90.95 108.95 81.85 110.2 Q77.15 110.6 73.55 112.55 L69.35 113 69.2 113 Q69 114.2 68.3 115 L68.15 115.05 64.6 114.75 64.4 114.75 Q64.15 116.95 62.9 118.15 L62.85 118.25 Q60.3 118.45 59.05 117.4 L58.9 117.4 58.65 115.85 58.55 115.7 Q58.1 116.1 57.1 116.1 L55.8 115.75 54.75 116.3 54.7 116.35 42.15 118.1 40.35 118.25 Q38.65 115.25 37.25 111.8 L36.05 109.05 Q34.6 105.95 33.9 102.75 L33 100.2 Q32.1 98.1 31.4 97.4 L31.45 97.35 29.75 92.9 29.7 92.85 Q29.3 90.85 28.9 90.1 L28.8 86.75 Q28.4 84.35 28.65 81.3 28.75 79.45 28.05 78.55 27.85 79.35 26.6 79.4 L22.4 80 19.2 80.75 11.9 82 9.75 82.45 6.3 82.55 6.2 82.55 Q5.65 81.8 5.9 80.85 L6.1 80.5 6.1 80.45 Q6.25 79.4 5.25 71.65 L3.75 62.05 3.75 61.8 2.15 39 1.9 37.35 2.05 35.35 Q2.05 34.15 2.85 33.7 L4.4 33.75 6.15 33.9 13.8 33.15 23.4 32.3 Q24.4 32.25 27.55 30.6 L32.95 26.95 32.85 26.9 Q32.45 26.1 31.95 26.6 L31.9 26.75 Q30.95 27.65 29.55 26.95 L29.4 26.95 Q28.35 27.6 27.9 26.6 L27.85 26.6 Q28.1 25.15 29.2 24.45 L29.15 24.4 Q28 22.8 26.3 21.85 L26.25 21.8 Q26.15 21.15 26.8 21.1 L26.8 21.2 Q28.1 21.85 29.8 22.15 L29.9 22.1 30.95 20.85 31.15 18.8 Q31.4 17.65 32.05 17.65 L32.15 17.65 Q31.85 19.8 32.35 22.55 34.75 25.75 36.55 29.45 L40.3 36.7 43.4 42.65 45 45.6 Q45.6 47.3 47.9 49.5 L50.4 48.9 Q51.75 48.25 52.95 48.05 L52.95 48.2 Q52.8 49.95 51.55 51.7 L52.2 52.65 Q53.6 52.45 52.95 54 L52.85 54.15 52.8 54.2 52.85 54.7 52.8 55.1 53.1 57.55 53.8 63.95 54.65 71.15 55.3 76.85 55.3 77.3 55.3 77.35 57.5 89.95 Q59.95 90.75 62.7 90.6 63.9 90.55 64.9 89.8 L64.8 89.8 66.3 88.2 66.15 84.85 65.65 80.85 Q64.85 76.85 64.8 73.1 L64.4 67.95 63.1 57.2 60.8 48.7 59.7 43.7 Q59.15 41.05 58.05 39.8 L58 39.8 Q58.05 37.55 56.45 36.3 L56.4 36.2 Q52.7 29 47.75 23.15 L47.65 23.15 Q46.7 22.85 46.75 22.4 47.4 21.95 46.6 20.85 45.05 18.8 43.15 17.2 41.55 14.05 39.55 11.35 37.6 8.6 36.05 5.45 L34.15 2.85 33.05 1.95 Q32.8 1.3 31.8 1.1 M92.1 37.85 Q92.75 42.1 94.25 46.85 95.25 49.95 94.25 52.75 93.15 52.75 92.4 53.15 87.25 56.1 82.65 59.4 75 64.8 68.35 71.1 L68.15 71.1 68.1 71.1 67.95 71.15 67.6 71.4 67.75 72.05 67.65 75.45 67.75 79.2 Q70 81.3 74.45 81.7 L76.85 82.1 81.55 82.7 92.15 83 Q95.15 83 96.05 81.75 L96.5 80.85 96.45 80.45 96.4 78.8 Q96.4 77.7 97.2 76.2 L97.25 76.2 97.7 72.2 98.6 66.6 98.85 65.35 Q99.2 55.2 100.05 52.8 101.25 49.15 101.25 46.15 101.25 44.55 100.9 43.9 100.25 42.65 97.85 41.65 96.85 41.3 94.1 39.35 L92.1 37.85 M101.7 61.55 L101.1 63.75 100.1 70.7 98.5 80.1 Q98.3 81.15 98.4 82.85 98.55 85.2 97.3 86.6 L97.3 86.65 95.6 86.3 95.15 86.5 91.75 85.9 87.85 85.25 79.5 84.15 71.95 83.2 Q71.65 83.2 71.5 83 L71.4 82.95 69.65 82.55 68.1 82.15 Q68.85 85.9 69.2 89.65 L69.2 89.8 Q69.85 91.05 70.95 91.8 L70.95 92 Q70.9 93.15 71.55 93.75 72.05 97.95 73.1 101.55 74.2 105.1 74.9 109.1 L74.95 109.1 Q75.8 108.85 76.6 109.1 78.45 108.35 80.25 108.2 L84.25 107.55 85.75 107.3 95.55 106.25 102.1 105.55 105.65 104.8 105.65 104.75 Q107.3 103.55 107.55 102.55 107.75 101.8 107.75 99 L107.55 96.9 107 94.15 106.55 91.55 106.3 89.05 106.25 88.75 105.85 84.75 105.8 84.5 105 75.2 104.9 74 104.8 71.35 Q104.75 70.7 105.05 68.45 L105.4 65.8 105.05 64.1 Q104.7 62.9 103.2 61.7 L102.6 61.3 101.7 61.55 M100.75 58.65 L100.75 58.5 100.7 58.65 100.75 58.65 M41.35 43.05 Q39.75 37.9 37.15 33.95 L37.1 33.95 Q36.75 32.05 35.25 30.5 L35.15 30.5 Q33.7 30.75 33.5 31.65 L33.35 31.75 33.1 31.8 Q29.2 33.1 25.15 35.2 21.1 37.3 16.3 38.65 L16.25 38.75 16.2 38.8 15.8 40.2 Q15.8 43 18.95 50.95 19.8 53.15 22.15 57.6 L23.3 60.25 23.95 62.05 24.15 62.65 26.6 68.4 Q28.35 72.5 30.75 75.8 33.4 79.4 35 84.05 L36.25 85.75 36.25 85.9 38 84.9 Q39.65 84 41.1 82.95 44.1 80.8 47.55 79.2 L51.9 76.9 52.75 76.55 52.75 76.4 52.1 73.45 Q51.65 71.45 51.65 70.3 L51.7 69.9 50.65 62.9 49.55 53.65 49.3 53.15 48.95 52.05 48.9 51.95 46.45 51.7 Q43.55 48.5 41.8 44.3 L41.35 43.05 M15 36.5 L16.5 36.15 18.3 35.2 Q19.6 34.7 19.35 34.15 L18.85 34.1 12.5 35.55 5.7 36.6 5.7 36.75 6.05 39.95 5.95 40 Q5.75 41 5.65 45.55 5.6 50.35 5.9 51.7 6.2 56.7 6.65 61 7.15 66.25 7.95 70.4 8.4 72.95 7.95 75.8 7.55 78.05 8.1 79.5 10.1 78.8 16.7 77.7 L26.15 76.35 26.85 76.25 27.15 76.25 25.9 74.7 26 74.6 Q24.45 69.95 22.55 65.45 L22.4 65.45 Q22.05 65.2 18.65 56.3 15.2 47.4 15.3 47.15 L15.2 47.15 Q14.05 42.15 12.1 37.9 L12.2 37.9 Q12.4 36.55 13.05 37.1 L15 36.5 M31.5 86.1 L31.35 85.6 30.65 84.75 30.65 84.85 31.5 87.45 Q31.65 90.8 32.45 93.3 33.35 96.2 34.4 98.6 L38.25 107.95 41.65 115.8 41.8 115.75 45.6 115.3 45.6 115.25 Q49.55 113.65 54.85 113.4 L54.85 113.3 Q54.15 111.25 53.1 109.55 L52.95 109.55 Q51.95 110.25 50.8 110.1 L50.65 110.05 Q48.7 109.15 47.2 107.9 L46.9 107.2 Q46.45 104.55 45.65 102.05 L45.25 100.35 Q44.95 99.95 44.75 98.8 L44.55 97 44.55 96.2 Q44.65 95.4 45.5 94.85 L45.5 94.8 47.2 93.2 49.35 91.4 Q50 90.75 52.5 89.65 53.55 89.15 54.25 89 53.85 86.75 54 84.85 54.25 81.5 53.1 79.1 L48.85 81.2 42.35 85.1 36.35 88.75 Q35 89.5 34.25 89.5 34.55 89.8 34.25 89.8 L33.95 89.85 33.8 89.9 33.65 90 Q32.9 90.4 32.95 89.65 L33.1 89.5 Q32.45 88.65 31.5 86.1 M49.25 98.3 Q50 97.55 50.65 97.35 L50.65 97.25 51.05 96.65 51.2 96.6 Q52 96.05 53.1 96.35 L53.7 96.9 54.25 103.15 54.7 110.55 54.85 110.6 Q55.3 110.9 55.45 111.55 L55.55 111.6 Q56.35 112.5 57.9 112.55 58.6 111.85 58.45 110.65 58.05 107.65 58.2 105.15 L58.3 105.15 59.65 105.15 59.75 105.15 Q60.15 109.15 59.2 113.6 L59.3 113.6 Q59.5 114.85 60.1 115.6 L60.2 115.65 61.4 116.5 61.5 116.55 62.7 116.5 63.05 116.15 Q63.9 112.65 63 109.55 L62.9 109.5 62.4 108.8 62.5 108.8 Q62.3 107.45 62.4 106.5 L62.45 106.4 Q63.05 106.15 63.3 105 63.95 105.2 64.1 106 L64.8 110.05 Q65.3 112.95 67.55 113.4 68.15 113.05 68.1 112 68.05 109.4 67.55 107.3 67.1 104.9 68.15 103.7 L68.35 103.75 70.05 105.15 70.1 105.3 Q71.2 107.2 71.55 109.8 L71.6 109.8 Q71.75 110.45 72.65 110.4 L72.8 110.35 Q73.85 109.5 74 107.8 L73.95 107.65 Q73.65 106.15 72.8 105.15 L70.75 96.75 Q70.4 95.1 69.7 93.7 L68.15 90.8 66.25 92.1 Q63.55 93.3 59.5 93.3 L57.35 93.15 56.75 93.05 56.05 92.8 55.05 92.25 Q54.65 91.95 53.8 91.7 L53.55 91.6 53.45 91.6 Q50 94.5 46.2 97.05 L46.1 97.35 47.3 102.45 47.9 104.9 48.1 105 48.05 105.15 48.05 105.35 48.55 106.95 Q49.7 108.4 51.8 108.95 L51.9 108.9 Q52.75 108.6 52.95 107.65 L52.95 107.5 Q51.7 105.9 50.8 104 L50.65 103.95 49.8 103.4 49.8 103.3 Q49.15 100.7 49.2 98.4 L49.25 98.3 M52.55 100.85 Q52.15 98.3 51.05 99.65 L51.1 99.85 Q51.55 101.7 52.4 103.15 L52.55 100.85 M68.45 107.8 L68.45 107.9 Q68.25 109.85 69.45 109.7 70.45 109.8 70.35 109.15 70 107.45 68.45 107.8"/>
	                <path stroke="none" fill="#FFFFFF" d="M68.45 107.8 Q70 107.45 70.35 109.15 70.45 109.8 69.45 109.7 68.25 109.85 68.45 107.9 L68.45 107.8 M88.8 36.9 Q89.15 38.4 90.5 41.55 92.4 46 92.4 47.7 92.4 50.1 91.15 51.65 L90.6 51.8 90.5 51.85 89.45 53 82.95 57.5 76.2 61.55 Q70.3 65.35 70.05 66.95 L69.85 67.1 67.2 69.45 66.7 66.3 66.45 64.35 66.25 63.65 66.3 63.35 Q64.8 57.2 64.75 55.05 64.65 53.45 63.95 50.8 L62.8 46.65 Q62.5 44.75 61.55 42.4 L59.8 38.15 58.05 33.9 56.3 30.75 Q55.8 30.1 55.55 30.25 L54 28.05 Q53.2 26.25 52.35 25.35 L50.85 22.55 50.8 22.4 Q55.5 20.5 60.15 19 64.1 17.7 67.75 16.2 L68.35 15.95 68.7 16.1 72.8 14.3 Q76 14.3 83.2 26.85 L88.8 36.9 M100.75 58.65 L100.7 58.65 100.75 58.5 100.75 58.65 M101.7 61.55 L102.6 61.3 103.2 61.7 Q104.7 62.9 105.05 64.1 L105.4 65.8 105.05 68.45 Q104.75 70.7 104.8 71.35 L104.9 74 105 75.2 105.8 84.5 105.85 84.75 106.25 88.75 106.3 89.05 106.55 91.55 107 94.15 107.55 96.9 107.75 99 Q107.75 101.8 107.55 102.55 107.3 103.55 105.65 104.75 L105.65 104.8 102.1 105.55 95.55 106.25 85.75 107.3 84.25 107.55 80.25 108.2 Q78.45 108.35 76.6 109.1 75.8 108.85 74.95 109.1 L74.9 109.1 Q74.2 105.1 73.1 101.55 72.05 97.95 71.55 93.75 70.9 93.15 70.95 92 L70.95 91.8 Q69.85 91.05 69.2 89.8 L69.2 89.65 Q68.85 85.9 68.1 82.15 L69.65 82.55 71.4 82.95 71.5 83 Q71.65 83.2 71.95 83.2 L79.5 84.15 87.85 85.25 91.75 85.9 95.15 86.5 95.6 86.3 97.3 86.65 97.3 86.6 Q98.55 85.2 98.4 82.85 98.3 81.15 98.5 80.1 L100.1 70.7 101.1 63.75 101.7 61.55 M92.1 37.85 L94.1 39.35 Q96.85 41.3 97.85 41.65 100.25 42.65 100.9 43.9 101.25 44.55 101.25 46.15 101.25 49.15 100.05 52.8 99.2 55.2 98.85 65.35 L98.6 66.6 97.7 72.2 97.25 76.2 97.2 76.2 Q96.4 77.7 96.4 78.8 L96.45 80.45 96.5 80.85 96.05 81.75 Q95.15 83 92.15 83 L81.55 82.7 76.85 82.1 74.45 81.7 Q70 81.3 67.75 79.2 L67.65 75.45 67.75 72.05 67.6 71.4 67.95 71.15 68.1 71.1 68.15 71.1 68.35 71.1 Q75 64.8 82.65 59.4 87.25 56.1 92.4 53.15 93.15 52.75 94.25 52.75 95.25 49.95 94.25 46.85 92.75 42.1 92.1 37.85 M31.5 86.1 Q32.45 88.65 33.1 89.5 L32.95 89.65 Q32.9 90.4 33.65 90 L33.8 89.9 33.95 89.85 34.25 89.8 Q34.55 89.8 34.25 89.5 35 89.5 36.35 88.75 L42.35 85.1 48.85 81.2 53.1 79.1 Q54.25 81.5 54 84.85 53.85 86.75 54.25 89 53.55 89.15 52.5 89.65 50 90.75 49.35 91.4 L47.2 93.2 45.5 94.8 45.5 94.85 Q44.65 95.4 44.55 96.2 L44.55 97 44.75 98.8 Q44.95 99.95 45.25 100.35 L45.65 102.05 Q46.45 104.55 46.9 107.2 L47.2 107.9 Q48.7 109.15 50.65 110.05 L50.8 110.1 Q51.95 110.25 52.95 109.55 L53.1 109.55 Q54.15 111.25 54.85 113.3 L54.85 113.4 Q49.55 113.65 45.6 115.25 L45.6 115.3 41.8 115.75 41.65 115.8 38.25 107.95 34.4 98.6 Q33.35 96.2 32.45 93.3 31.65 90.8 31.5 87.45 L30.65 84.85 30.65 84.75 31.35 85.6 31.5 86.1 M52.55 100.85 L52.4 103.15 Q51.55 101.7 51.1 99.85 L51.05 99.65 Q52.15 98.3 52.55 100.85"/>
	                <path class="shirt" stroke="none" fill="#E2F1F1" d="M27.55 30.6 L27.6 30.5 27.8 29.9 24.15 24.75 Q20.5 19.5 20.5 14.45 20.5 12.8 21 9.55 L21.2 8.6 21.7 8 23.3 5.9 Q25.05 3.85 27.5 3.2 L28.35 3 31.6 3.2 Q32.65 3.2 32.65 2.05 32.65 1.35 31.6 1.05 L31.8 1.1 Q32.8 1.3 33.05 1.95 L34.15 2.85 36.05 5.45 Q37.6 8.6 39.55 11.35 41.55 14.05 43.15 17.2 45.05 18.8 46.6 20.85 47.4 21.95 46.75 22.4 46.7 22.85 47.65 23.15 L47.75 23.15 Q52.7 29 56.4 36.2 L56.45 36.3 Q58.05 37.55 58 39.8 L58.05 39.8 Q59.15 41.05 59.7 43.7 L60.8 48.7 63.1 57.2 64.4 67.95 64.8 73.1 Q64.85 76.85 65.65 80.85 L66.15 84.85 66.3 88.2 64.8 89.8 64.9 89.8 Q63.9 90.55 62.7 90.6 59.95 90.75 57.5 89.95 L55.3 77.35 55.3 77.3 55.3 76.85 54.65 71.15 53.8 63.95 53.1 57.55 52.8 55.1 52.85 54.7 52.8 54.2 52.85 54.15 52.95 54 Q53.6 52.45 52.2 52.65 L51.55 51.7 Q52.8 49.95 52.95 48.2 L52.95 48.05 Q51.75 48.25 50.4 48.9 L47.9 49.5 Q45.6 47.3 45 45.6 L43.4 42.65 40.3 36.7 36.55 29.45 Q34.75 25.75 32.35 22.55 31.85 19.8 32.15 17.65 L32.05 17.65 Q31.4 17.65 31.15 18.8 L30.95 20.85 29.9 22.1 29.8 22.15 Q28.1 21.85 26.8 21.2 L26.8 21.1 Q26.15 21.15 26.25 21.8 L26.3 21.85 Q28 22.8 29.15 24.4 L29.2 24.45 Q28.1 25.15 27.85 26.6 L27.9 26.6 Q28.35 27.6 29.4 26.95 L29.55 26.95 Q30.95 27.65 31.9 26.75 L31.95 26.6 Q32.45 26.1 32.85 26.9 L32.95 26.95 27.55 30.6"/>
	                <path stroke="none" fill="#FEFEFE" d="M41.35 43.05 L41.8 44.3 Q43.55 48.5 46.45 51.7 L48.9 51.95 48.95 52.05 49.3 53.15 49.55 53.65 50.65 62.9 51.7 69.9 51.65 70.3 Q51.65 71.45 52.1 73.45 L52.75 76.4 52.75 76.55 51.9 76.9 47.55 79.2 Q44.1 80.8 41.1 82.95 39.65 84 38 84.9 L36.25 85.9 36.25 85.75 35 84.05 Q33.4 79.4 30.75 75.8 28.35 72.5 26.6 68.4 L24.15 62.65 23.95 62.05 23.3 60.25 22.15 57.6 Q19.8 53.15 18.95 50.95 15.8 43 15.8 40.2 L16.2 38.8 16.25 38.75 16.3 38.65 Q21.1 37.3 25.15 35.2 29.2 33.1 33.1 31.8 L33.35 31.75 33.5 31.65 Q33.7 30.75 35.15 30.5 L35.25 30.5 Q36.75 32.05 37.1 33.95 L37.15 33.95 Q39.75 37.9 41.35 43.05 M15 36.5 L13.05 37.1 Q12.4 36.55 12.2 37.9 L12.1 37.9 Q14.05 42.15 15.2 47.15 L15.3 47.15 Q15.2 47.4 18.65 56.3 22.05 65.2 22.4 65.45 L22.55 65.45 Q24.45 69.95 26 74.6 L25.9 74.7 27.15 76.25 26.85 76.25 26.15 76.35 16.7 77.7 Q10.1 78.8 8.1 79.5 7.55 78.05 7.95 75.8 8.4 72.95 7.95 70.4 7.15 66.25 6.65 61 6.2 56.7 5.9 51.7 5.6 50.35 5.65 45.55 5.75 41 5.95 40 L6.05 39.95 5.7 36.75 5.7 36.6 12.5 35.55 18.85 34.1 19.35 34.15 Q19.6 34.7 18.3 35.2 L16.5 36.15 15 36.5"/>
	                <path stroke="none" fill="#E7B698" d="M49.25 98.3 L49.2 98.4 Q49.15 100.7 49.8 103.3 L49.8 103.4 50.65 103.95 50.8 104 Q51.7 105.9 52.95 107.5 L52.95 107.65 Q52.75 108.6 51.9 108.9 L51.8 108.95 Q49.7 108.4 48.55 106.95 L48.05 105.35 48.05 105.15 48.1 105 47.9 104.9 47.3 102.45 46.1 97.35 46.2 97.05 Q50 94.5 53.45 91.6 L53.55 91.6 53.8 91.7 Q54.65 91.95 55.05 92.25 L56.05 92.8 56.75 93.05 57.35 93.15 59.5 93.3 Q63.55 93.3 66.25 92.1 L68.15 90.8 69.7 93.7 Q70.4 95.1 70.75 96.75 L72.8 105.15 Q73.65 106.15 73.95 107.65 L74 107.8 Q73.85 109.5 72.8 110.35 L72.65 110.4 Q71.75 110.45 71.6 109.8 L71.55 109.8 Q71.2 107.2 70.1 105.3 L70.05 105.15 68.35 103.75 68.15 103.7 Q67.1 104.9 67.55 107.3 68.05 109.4 68.1 112 68.15 113.05 67.55 113.4 65.3 112.95 64.8 110.05 L64.1 106 Q63.95 105.2 63.3 105 63.05 106.15 62.45 106.4 L62.4 106.5 Q62.3 107.45 62.5 108.8 L62.4 108.8 62.9 109.5 63 109.55 Q63.9 112.65 63.05 116.15 L62.7 116.5 61.5 116.55 61.4 116.5 60.2 115.65 60.1 115.6 Q59.5 114.85 59.3 113.6 L59.2 113.6 Q60.15 109.15 59.75 105.15 L59.65 105.15 58.3 105.15 58.2 105.15 Q58.05 107.65 58.45 110.65 58.6 111.85 57.9 112.55 56.35 112.5 55.55 111.6 L55.45 111.55 Q55.3 110.9 54.85 110.6 L54.7 110.55 54.25 103.15 53.7 96.9 53.1 96.35 Q52 96.05 51.2 96.6 L51.05 96.65 50.65 97.25 50.65 97.35 Q50 97.55 49.25 98.3"/>
	              </g>
	         	</svg>
	         </g>
         
	          <svg  x="95" y="215" viewBox="-20 -20 300 280">
	              <defs/>
	              <g id="leftFoot">
	                <path stroke="none" fill="#000000" d="M25.05 8.9 Q23.95 9.65 21 9.65 L1.85 9.35 Q1.05 9.35 0.55 8.95 0 8.5 0 7.75 0 4.1 3.9 1.9 7.6 -0.25 12.6 0.05 20.6 0.55 24 3.7 25.9 5.5 25.9 7.2 25.9 8.35 25.05 8.9"/>
	              </g>
	         </svg>
	         <svg x="50" y="215" viewBox="-20 -20 300 280">
	              <defs/>
	              <g id="rightFoot">
	                <path stroke="none" fill="#000000" d="M22.5 4.6 Q24 7.6 21.4 8.85 19.7 9.65 16.4 9.65 8.95 9.25 5.15 9.55 L1.5 10.1 Q0.6 10.25 0.2 9.75 -0.2 9.25 0.25 8.45 L1.65 6.05 Q2.8 3.45 10.1 1 14.4 -0.6 17.55 0.3 20.8 1.25 22.5 4.6"/>
	              </g>
	        </svg>
       </svg>
